Patient4_TMGait_0pt2_02_left_24_EMG.mot
version=1
nRows=23
nColumns=33
inDegrees=no
endheader
time	1LAddLong	2LGlutMax	3LGlutMed	4LIliopsoas	5LSemiMemb	6LBicFemLong	7LRecFem	8LVastMed	9LVastLat	10LGasMed	11LTibAnt	12lTibPost	13LPeroneusLong	14LSol	15LExtDigLong	16LFlexDigLong	17RAddLong	18RGlutMax	19RGlutMed	20RIliopsoas	21RSemiMemb	22RBicFemLong	23RRecFem	24RVastMed	25RVastLat	26RGasMed	27RTibAnt	28RTibPost	29RPeroneusLong	30RSol	31RExtDigLong	32RFlexDigLong
56.205	0.011292	0.001678	0.18784	0.007782	-0.008545	0.004272	0.033722	-0.003357	-0.034485	-0.062561	0.12802	0.003204	-0.12634	0.0383	0.11536	-0.00473	-0.050659	-0.24521	-0.74539	0.015869	0.070953	0.0737	-1.0109	0.12787	0.59998	0.023041	-0.024872	0.20844	0.1651	0.093079	-0.006561	-0.005798
56.206	0.010071	-0.034485	0.096436	0	-0.006409	-0.010071	0.029297	0.009613	-0.034943	-0.07782	0.071869	0.003662	-0.068817	0.018463	-0.12772	0.00946	-0.030212	-0.32471	-0.91934	0.022736	0.095978	0.090179	-0.79651	0.48279	0.46356	0.015717	0.004425	-0.47928	0.053864	0.38574	-0.003662	-0.00473
56.207	0.007019	-0.055389	0.007477	0.020142	0.00061	0.009003	0.010681	0.014801	-0.035095	-0.061188	-0.014801	-0.001831	-0.030365	-0.038452	-0.099335	-0.007629	0.006714	-0.31265	-0.3064	0.000916	-0.177	0.011292	-0.10468	0.29114	-0.2214	0.016327	-0.018311	-0.40009	0.095215	0.43579	0.000458	0.007629
56.208	0.010681	-0.03479	0.011749	0.023804	0.001984	-0.001373	0.023346	0.010681	-0.037537	-0.038452	-0.050812	0.00473	0.028534	-0.046082	-0.12787	-0.012207	0.068512	-0.25314	-0.11902	-0.016479	-0.38773	-0.037689	0.28366	0.064087	-0.35126	0.019684	-0.02243	0.19821	0.003815	0.41702	-0.005341	0.000916
56.209	0.012054	-0.015106	0.021057	0.007935	0.00824	-0.002747	0.023651	0.02243	-0.040588	-0.037537	-0.14389	0.006714	0.10696	-0.021362	-0.1294	-0.002899	0.13214	-0.22171	-0.63019	-0.029907	-0.46097	-0.021057	0.33951	-0.14358	-0.28809	0.014648	-0.019379	0.23254	-0.041351	0.2623	-0.006104	0.004425
56.21	0.007935	0.007324	-0.02533	0.0177	-0.003357	0.004883	0.018616	-0.009003	-0.052032	0.000153	-0.049744	0.001373	-0.006256	-0.046844	-0.12375	0.007935	0.11917	-0.27618	-0.7254	-0.012054	0.14648	0.075378	0.30106	-0.083466	-0.21973	0.012512	-0.018921	0.042419	-0.020294	0.19318	-0.005798	0.005951
56.211	0.005188	0.008392	0.011444	-0.00473	-0.002289	-0.011749	0.013885	0.010681	-0.059509	0.040131	-0.000153	-0.000916	-0.044556	-0.060272	-0.067749	0.010986	0.076752	-0.24048	-0.40237	0.011444	0.25848	0.067902	0.30273	-0.065155	-0.16342	0.013428	-0.024719	-0.22324	-0.029449	0.11337	-0.005646	0.010071
56.212	0.008392	-0.009003	-0.002747	0.000153	0.001526	-0.014954	0.005341	0.010986	-0.037384	0.045013	-0.010986	0.001221	-0.045624	-0.037994	0.027161	0.01297	0.056152	-0.23422	-0.51514	0.10605	-0.12451	-0.045319	0.30487	-0.18326	-0.20187	0.017395	-0.003357	0.011749	-0.046997	0.062256	-0.005646	-0.001373
56.213	0.01297	-0.047913	-0.10559	-0.014954	-0.001831	-0.013123	-0.013275	-0.001068	-0.042419	0.002289	-0.015411	0.00061	-0.042419	-0.023041	0.016022	0.001221	0.01709	-0.21271	-0.83878	0.07782	-0.12695	-0.030365	0.34256	-0.10452	-0.15915	0.015259	0.006409	0.12024	-0.04837	-0.033264	-0.003052	-0.002441
56.214	0.001678	-0.05249	-0.15656	0.016174	0.000305	0.014343	0.014801	0.016022	-0.046844	-0.02121	-0.019989	-0.007629	-0.04425	-0.012817	-0.031128	0.016785	-0.073547	-0.12177	-0.10773	0.13641	-0.21851	0.17364	0.24948	0.060425	-0.052948	0.014496	0.021057	0.074921	-0.070953	-0.077362	-0.004425	-0.000916
56.215	0.006104	-0.042419	-0.11887	-0.000305	0.005188	0.015106	0.004578	0.014038	-0.054016	-0.019836	-0.015869	0.000458	-0.032501	-0.014801	-0.050507	0.011749	-0.10025	-0.087433	-0.27542	0.071564	0.050049	0.1239	0.13748	0.078583	0.009003	0.014343	0.001526	-0.023346	-0.072021	-0.054779	-0.005493	-0.006104
56.216	0.005035	-0.050812	-0.053101	0.00061	0.003662	0.012665	0.007477	0.016632	-0.045776	-0.029907	-0.01709	-0.001984	-0.050812	-0.027771	-0.03952	0.004425	-0.027008	-0.11932	-1.1638	0.068359	0.061035	-0.083771	0.011292	0.0177	0.016785	0.022736	0.005798	-0.015259	-0.052032	-0.093536	-0.004883	-0.003052
56.217	0.002594	-0.018463	0.051575	0.009766	-0.003052	0.013123	-0.019226	0.007324	-0.057068	-0.04364	-0.005493	-0.001068	-0.04776	-0.006409	-0.037537	0.020752	0.030975	-0.017242	-0.60913	0.036163	0.082855	-0.044403	-0.17609	-0.034027	0.12116	0.025787	0.023499	-0.050964	-0.12283	-0.10193	-0.006104	-0.00946
56.218	0.012817	-0.068512	0.021515	0.004578	-0.007019	0.006866	-0.032196	0.005188	-0.053711	-0.028229	-0.004578	-0.004272	-0.016479	-0.027924	-0.023193	0.003204	0.08606	0.004272	-0.1236	0.026855	0.07019	0.037994	-0.081177	-0.215	0.071106	0.021057	0.04715	-0.042267	-0.11978	-0.061646	-0.003357	-0.010376
56.219	0.038605	-0.075226	-0.031281	0.022125	0.002289	0.000305	-0.021973	0.003052	-0.049896	-0.008087	-0.005188	-0.000916	0.012512	-0.002441	-0.002899	0.017548	0.13672	0.045471	0.039215	0.024109	-0.18738	0.010223	0.12833	-0.088654	0.049133	0.023804	0.089722	-0.054626	-0.067139	-0.14603	-0.005188	-0.012665
56.22	0.038147	-0.072632	-0.17944	0.029907	-0.000458	-0.002441	-0.027466	0.007172	-0.055695	0.024261	0.006409	0.002899	-0.034332	-0.013733	0.020447	0.022583	0.12604	0.14954	0.39032	-0.022888	-0.38666	0.13336	0.16998	0.091705	0.052185	0.030518	0.097198	-0.052032	-0.32471	-0.26245	-0.009155	-0.011597
56.221	-0.017242	-0.040283	-0.22644	0.029144	-0.00412	0	-0.02182	0.001984	-0.047913	0.031891	0.010986	0.001678	-0.083923	-0.023804	0.06546	0.018921	0.018616	0.18173	0.7988	-0.03418	-0.25345	0.21286	0.059662	0.13443	0.11749	0.044403	0.062714	-0.054474	-0.84747	-0.30212	-0.007324	-0.008698
56.222	-0.053406	-0.030365	0.005646	0.009003	-0.002747	-0.007324	-0.003204	-0.000763	-0.055237	0.024261	-0.019531	-0.000458	-0.083771	-0.02594	0.045929	0.018463	-0.12024	0.28091	0.74188	-0.019531	0.31021	0.13748	-0.15839	0.078125	0.10666	0.054169	0.046692	-0.046539	-1.1534	-0.32059	-0.00473	-0.010071
56.223	0.083313	-0.052795	0.095062	0.006256	0.00473	0.015259	-0.001984	0.004425	-0.056915	0	0.005341	-0.003204	-0.07843	-0.020294	0.062561	0.013428	-0.10651	0.22842	0.053711	0.012665	0.19577	-0.071716	-0.18158	0.041504	0.12741	0.066223	0.04837	-0.045624	-0.92041	-0.34805	-0.006409	-0.005493
56.224	-0.01236	-0.057068	0.094757	-0.031128	-0.002899	0.027313	-0.011749	0.006409	-0.056458	-0.02655	0.020294	0.000153	-0.060425	0.006409	-0.014191	0.014191	-0.077667	0.15106	-0.31601	0.033264	0.3122	-0.11444	-0.15198	0.11475	0.12863	0.057983	-0.002136	-0.059204	-0.48996	-0.68909	-0.004578	-0.002136
56.225	0.005798	-0.034637	0.099182	-0.02655	-0.010223	0.03067	0	0.007019	-0.06485	-0.033722	0.024414	-0.002899	-0.050964	0.007935	0.4512	0.013275	-0.068207	0.12421	-0.30685	0.073242	0.088196	-0.12039	-0.045624	0.13596	0.17624	0.041199	-0.072021	-0.044708	0.14557	-1.0025	-0.006561	-0.000153
56.226	-0.003204	-0.039825	0.093842	-0.008698	-0.005951	0.021973	-0.011444	0.008392	-0.063934	-0.033264	0.052643	-0.000916	-0.052185	0.000916	0.53558	0.01236	-0.046082	0.073242	0.39414	0.051575	0.026398	-0.036774	-0.087585	0.095062	0.61752	0.031891	-0.12604	-0.70114	0.75836	-0.71793	-0.002289	-0.010681
56.227	0.000305	-0.020599	-0.025787	0.018616	-0.004272	0.00946	-0.010376	0.007629	-0.067444	-0.025482	0.046539	0.006104	-0.06897	0.003662	-0.47821	0.016785	-0.003662	0.015411	0.077972	0.098572	0.17425	0.04364	0.043182	0.14877	0.84045	0.001831	-0.10056	0.006866	0.4129	-0.33524	-0.002441	-0.002136
